<svg width="148" height="40" viewBox="0 0 148 40" fill="none" xmlns="http://www.w3.org/2000/svg">
<path d="M59.239 30.8368V30.8989L57.4313 37.3085H56.3343L55.2442 33.3344C55.0993 32.8032 54.9751 32.2443 54.8716 31.6647C54.8233 31.9131 54.775 32.1822 54.7129 32.472C54.6508 32.7618 54.5887 33.0515 54.5128 33.3275L53.4641 37.3016H52.3671L50.5181 30.892V30.8299H51.4495L52.5672 34.9006C52.6776 35.3077 52.8018 35.8182 52.9329 36.4254C53.0364 35.7837 53.133 35.2801 53.2433 34.9006L54.3749 30.8299H55.4512L56.5965 34.9006C56.6793 35.1835 56.7897 35.7009 56.9345 36.4392C56.9759 36.1977 57.0242 35.9424 57.0932 35.6595C57.1622 35.3767 57.2243 35.1283 57.2864 34.9006L58.3351 30.8299H59.2321L59.239 30.8368Z" fill="#B9B9B9"/>
<path d="M63.4271 35.2663H60.3844C60.3844 35.763 60.5155 36.1287 60.7501 36.3564C60.9847 36.584 61.2882 36.6944 61.6608 36.6944C61.9299 36.6944 62.1576 36.6599 62.3576 36.5978C62.5508 36.5288 62.7716 36.4254 63.0131 36.2874L63.3443 36.8945C62.7992 37.2464 62.2266 37.4258 61.6263 37.4258C60.9847 37.4258 60.4741 37.2464 60.0946 36.8945C59.7152 36.5358 59.522 35.9769 59.522 35.2042C59.522 34.7626 59.6048 34.3624 59.7635 34.0037C59.9221 33.6449 60.1636 33.3551 60.4741 33.1412C60.7915 32.9273 61.1778 32.8169 61.6401 32.8169C62.0265 32.8169 62.3576 32.8928 62.6267 33.0515C62.9027 33.2102 63.1028 33.4241 63.2477 33.6932C63.3857 33.9692 63.4547 34.2796 63.4547 34.6315L63.434 35.2731L63.4271 35.2663ZM60.8191 33.7898C60.619 33.9968 60.4948 34.2796 60.4327 34.6384H62.606V34.597C62.606 34.2244 62.5232 33.9416 62.3507 33.7553C62.1783 33.569 61.9368 33.4724 61.6263 33.4724C61.2813 33.4724 61.0122 33.5759 60.8122 33.7829L60.8191 33.7898Z" fill="#B9B9B9"/>
<path d="M72.8999 33.1343C73.1276 33.3482 73.238 33.6932 73.238 34.1761V37.3085H72.3825V34.5211C72.3825 34.2727 72.3618 34.0864 72.3135 33.9485C72.2652 33.8105 72.1962 33.7139 72.0927 33.6518C71.9961 33.5897 71.8512 33.5621 71.6718 33.5621C71.4786 33.5621 71.2785 33.5897 71.0647 33.6449C70.8508 33.7001 70.6507 33.776 70.4644 33.8726C70.4782 34.0037 70.4851 34.1071 70.4851 34.1692V37.3016H69.6296V34.5142C69.6296 34.2658 69.6089 34.0796 69.5675 33.9416C69.5261 33.8036 69.4502 33.707 69.3536 33.6449C69.257 33.5828 69.1121 33.5552 68.9327 33.5552C68.7534 33.5552 68.5464 33.5828 68.3463 33.638C68.1393 33.6932 67.9461 33.7691 67.7598 33.8519V37.2947H66.9043V32.9204L67.7598 32.8239V33.2447C68.2704 32.9549 68.774 32.8031 69.257 32.8031C69.74 32.8031 70.0987 32.9687 70.2988 33.293C70.5403 33.155 70.8094 33.0377 71.113 32.9411C71.4165 32.8446 71.7132 32.8031 72.0099 32.8031C72.3894 32.8031 72.6929 32.9066 72.9206 33.1205L72.8999 33.1343Z" fill="#B9B9B9"/>
<path d="M75.1628 37.1222C74.8523 36.9221 74.6178 36.6461 74.466 36.2943C74.3142 35.9424 74.2383 35.5491 74.2383 35.1145C74.2383 34.5832 74.3418 34.1416 74.535 33.8036C74.735 33.4586 75.0041 33.2102 75.3422 33.0515C75.6803 32.8928 76.0666 32.8169 76.5013 32.8169C76.9705 32.8169 77.3568 32.9204 77.6673 33.1205C77.9778 33.3206 78.2124 33.5966 78.3641 33.9416C78.5159 34.2865 78.5918 34.6798 78.5918 35.1214C78.5918 35.6595 78.4952 36.1011 78.2952 36.4461C78.0951 36.791 77.826 37.0394 77.4879 37.1981C77.1499 37.3568 76.7635 37.4327 76.3288 37.4327C75.8597 37.4327 75.4733 37.3292 75.1628 37.1291V37.1222ZM77.7018 35.1076C77.7018 34.6246 77.5983 34.2313 77.3844 33.9416C77.1774 33.6518 76.8601 33.5069 76.4392 33.5069C75.97 33.5069 75.6389 33.6518 75.4388 33.9347C75.2318 34.2175 75.1352 34.6108 75.1352 35.1076C75.1352 35.6043 75.2387 35.9907 75.4526 36.2874C75.6665 36.5771 75.9838 36.7289 76.4116 36.7289C77.2671 36.7289 77.7018 36.1908 77.7018 35.1145V35.1076Z" fill="#B9B9B9"/>
<path d="M83.2146 32.9342V32.9963L81.469 37.3085H80.6825L78.8955 32.9963V32.9342H79.8338L80.8894 35.7492C80.917 35.8182 80.9722 35.97 81.0481 36.2115L81.1102 36.4047C81.1792 36.177 81.2482 35.9631 81.3172 35.7561L82.3176 32.9411H83.2146V32.9342Z" fill="#B9B9B9"/>
<path d="M87.4163 35.2663H84.3737C84.3737 35.763 84.5047 36.1287 84.7393 36.3564C84.9739 36.584 85.2775 36.6944 85.6501 36.6944C85.9191 36.6944 86.1468 36.6599 86.3469 36.5978C86.5401 36.5288 86.7609 36.4254 87.0023 36.2874L87.3335 36.8945C86.7885 37.2464 86.2158 37.4258 85.6156 37.4258C84.9739 37.4258 84.4634 37.2464 84.0839 36.8945C83.7044 36.5358 83.5112 35.9769 83.5112 35.2042C83.5112 34.7626 83.594 34.3624 83.7527 34.0037C83.9114 33.6449 84.1529 33.3551 84.4633 33.1412C84.7807 32.9273 85.1671 32.8169 85.6294 32.8169C86.0157 32.8169 86.3469 32.8928 86.616 33.0515C86.892 33.2102 87.092 33.4241 87.2369 33.6932C87.3749 33.9692 87.4439 34.2796 87.4439 34.6315L87.4232 35.2731L87.4163 35.2663ZM84.8083 33.7898C84.6082 33.9968 84.484 34.2796 84.422 34.6384H86.5953V34.597C86.5953 34.2244 86.5125 33.9416 86.34 33.7553C86.1675 33.569 85.926 33.4724 85.6156 33.4724C85.2706 33.4724 85.0015 33.5759 84.8014 33.7829L84.8083 33.7898Z" fill="#B9B9B9"/>
<path d="M94.5642 32.9342V32.9963L92.8945 37.619C92.7496 38.026 92.5909 38.3503 92.4253 38.5918C92.2598 38.8333 92.0735 39.0127 91.8596 39.123C91.6526 39.2334 91.4042 39.2886 91.1145 39.2886C90.8247 39.2886 90.5349 39.2403 90.2451 39.1368L90.4728 38.4745C90.666 38.5366 90.8523 38.5642 91.0455 38.5642C91.1972 38.5642 91.3283 38.5435 91.4318 38.4952C91.5353 38.4469 91.6457 38.3572 91.7492 38.2261C91.8527 38.095 91.9562 37.8949 92.0528 37.6259L92.1701 37.3085H91.9424L90.2658 32.9963V32.9342H91.1765L92.2046 35.7285L92.315 36.0252L92.4736 36.4944L92.722 35.7285L93.681 32.9342H94.5573H94.5642Z" fill="#B9B9B9"/>
<path d="M95.8337 37.1222C95.5232 36.9221 95.2886 36.6461 95.1369 36.2943C94.9851 35.9424 94.9092 35.5491 94.9092 35.1145C94.9092 34.5832 95.0127 34.1416 95.2059 33.8036C95.4059 33.4586 95.675 33.2102 96.0131 33.0515C96.3512 32.8928 96.7375 32.8169 97.1722 32.8169C97.6414 32.8169 98.0277 32.9204 98.3382 33.1205C98.6487 33.3206 98.8833 33.5966 99.035 33.9416C99.1868 34.2865 99.2627 34.6798 99.2627 35.1214C99.2627 35.6595 99.1661 36.1011 98.966 36.4461C98.766 36.791 98.4969 37.0394 98.1588 37.1981C97.8207 37.3568 97.4344 37.4327 96.9997 37.4327C96.5305 37.4327 96.1442 37.3292 95.8337 37.1291V37.1222ZM98.3727 35.1076C98.3727 34.6246 98.2692 34.2313 98.0553 33.9416C97.8483 33.6518 97.531 33.5069 97.1101 33.5069C96.6409 33.5069 96.3098 33.6518 96.1097 33.9347C95.9027 34.2175 95.8061 34.6108 95.8061 35.1076C95.8061 35.6043 95.9096 35.9907 96.1235 36.2874C96.3374 36.5771 96.6547 36.7289 97.0825 36.7289C97.938 36.7289 98.3727 36.1908 98.3727 35.1145V35.1076Z" fill="#B9B9B9"/>
<path d="M104.023 32.8307V37.3016H103.257L103.209 36.9704C102.699 37.2671 102.174 37.4189 101.65 37.4189C101.243 37.4189 100.912 37.3016 100.656 37.0739C100.401 36.8462 100.27 36.4944 100.27 36.0321V32.9273L101.126 32.8307V35.7837C101.126 36.0045 101.153 36.177 101.208 36.3081C101.264 36.4392 101.346 36.5289 101.471 36.5909C101.588 36.6461 101.753 36.6737 101.967 36.6737C102.285 36.6737 102.685 36.5495 103.168 36.3012V32.9273L104.023 32.8307Z" fill="#B9B9B9"/>
<path d="M107.866 32.8307C107.956 32.8445 108.059 32.8652 108.163 32.8928L108.004 33.7829C107.777 33.7001 107.57 33.6656 107.383 33.6656C107.169 33.6656 106.976 33.7139 106.797 33.8036C106.617 33.8933 106.445 34.0726 106.279 34.3348V37.3085H105.424V32.9273L106.279 32.8376V33.4655C106.445 33.2516 106.638 33.0929 106.859 32.9825C107.08 32.8721 107.314 32.8169 107.556 32.8169C107.666 32.8169 107.77 32.8169 107.866 32.8376V32.8307Z" fill="#B9B9B9"/>
<path d="M114.173 37.1429C113.828 37.3292 113.462 37.4258 113.076 37.4258C112.662 37.4258 112.337 37.3085 112.096 37.0739C111.854 36.8393 111.737 36.4806 111.737 36.0114V33.6173H110.861V32.9411H111.737V31.9545L112.593 31.8165V32.948H114.069L113.979 33.6242H112.593V35.8803C112.593 36.4392 112.8 36.722 113.214 36.722C113.331 36.722 113.448 36.7082 113.565 36.6806C113.676 36.653 113.8 36.6117 113.938 36.5496L114.179 37.1567L114.173 37.1429Z" fill="#B9B9B9"/>
<path d="M118.443 33.1343C118.684 33.3482 118.802 33.6932 118.802 34.1761V37.3085H117.946V34.5211C117.946 34.2727 117.919 34.0865 117.87 33.9485C117.822 33.8105 117.739 33.7139 117.622 33.6518C117.505 33.5897 117.346 33.5621 117.146 33.5621C116.946 33.5621 116.732 33.5897 116.511 33.6449C116.29 33.7001 116.083 33.7691 115.89 33.8657V37.3085H115.035V30.4366L115.89 30.3332V33.2378C116.435 32.9549 116.96 32.8101 117.47 32.8101C117.884 32.8101 118.208 32.9135 118.45 33.1274L118.443 33.1343Z" fill="#B9B9B9"/>
<path d="M120.265 31.9614C120.175 31.9062 120.099 31.8303 120.037 31.7337C119.975 31.6372 119.954 31.5406 119.954 31.4371C119.954 31.3267 119.982 31.2232 120.037 31.1266C120.092 31.03 120.168 30.961 120.265 30.8989C120.354 30.8437 120.458 30.8161 120.561 30.8161C120.672 30.8161 120.775 30.8437 120.872 30.8989C120.968 30.9541 121.037 31.03 121.099 31.1266C121.155 31.2232 121.182 31.3198 121.182 31.4371C121.182 31.5406 121.155 31.6441 121.099 31.7337C121.044 31.8303 120.968 31.8993 120.872 31.9614C120.782 32.0166 120.679 32.0442 120.561 32.0442C120.458 32.0442 120.354 32.0166 120.265 31.9614ZM120.147 37.3085V32.9342L121.003 32.8376V37.3085H120.147Z" fill="#B9B9B9"/>
<path d="M126.198 34.2037V37.3085H125.342V34.5211C125.342 34.2727 125.315 34.0864 125.267 33.9485C125.218 33.8105 125.136 33.7139 125.018 33.6518C124.901 33.5897 124.742 33.5621 124.542 33.5621C124.342 33.5621 124.128 33.5897 123.9 33.6449C123.673 33.7001 123.459 33.776 123.259 33.8726V37.3085H122.403V32.9342L123.259 32.8376V33.2585C123.818 32.9687 124.349 32.8169 124.86 32.8169C125.75 32.8169 126.198 33.2792 126.198 34.2037Z" fill="#B9B9B9"/>
<path d="M130.965 36.7772C131.214 36.8669 131.4 36.9842 131.531 37.1498C131.655 37.3085 131.717 37.5155 131.717 37.7708C131.717 38.0743 131.621 38.3434 131.421 38.578C131.221 38.8057 130.945 38.9851 130.579 39.1093C130.213 39.2334 129.779 39.2955 129.268 39.2955C128.62 39.2955 128.109 39.192 127.723 38.9851C127.336 38.7781 127.143 38.4676 127.143 38.0536C127.143 37.7984 127.205 37.5914 127.329 37.4258C127.454 37.2602 127.633 37.1015 127.861 36.9566C127.661 36.8186 127.564 36.6392 127.564 36.4185C127.564 36.2874 127.605 36.1632 127.681 36.0459C127.757 35.9355 127.881 35.8182 128.047 35.694C127.805 35.5629 127.626 35.3836 127.509 35.1628C127.391 34.942 127.329 34.6936 127.329 34.4038C127.329 34.0382 127.419 33.7346 127.605 33.4931C127.785 33.2516 128.026 33.0791 128.33 32.9756C128.626 32.8721 128.965 32.817 129.33 32.817C129.516 32.817 129.71 32.8308 129.91 32.8653L131.4 32.2443L131.697 32.9412L130.676 33.2309C130.869 33.3758 131.014 33.5552 131.103 33.7553C131.193 33.9554 131.241 34.1761 131.241 34.4107C131.241 34.9489 131.055 35.3422 130.676 35.5905C130.296 35.8389 129.82 35.9631 129.241 35.9631C128.978 35.9631 128.758 35.9424 128.571 35.8941C128.482 35.9907 128.44 36.0873 128.44 36.2046C128.44 36.2805 128.468 36.3357 128.523 36.3771C128.578 36.4185 128.661 36.453 128.785 36.4737C128.902 36.4944 129.075 36.5151 129.296 36.5358L130.006 36.5978C130.4 36.6323 130.717 36.6944 130.972 36.7772H130.965ZM130.379 38.4469C130.669 38.3365 130.814 38.1502 130.814 37.8881C130.814 37.7708 130.772 37.6673 130.696 37.5914C130.613 37.5155 130.496 37.4534 130.331 37.412C130.165 37.3706 129.944 37.3361 129.668 37.3085L128.958 37.2464C128.744 37.2257 128.551 37.1981 128.371 37.1567C128.247 37.2671 128.143 37.3913 128.074 37.5224C128.006 37.6535 127.971 37.7846 127.971 37.9156C127.971 38.1502 128.074 38.3227 128.288 38.44C128.502 38.5573 128.84 38.6125 129.296 38.6125C129.73 38.6125 130.089 38.5573 130.379 38.44V38.4469ZM128.454 33.7139C128.275 33.8864 128.192 34.1141 128.192 34.39C128.192 34.666 128.281 34.9006 128.461 35.0662C128.64 35.2318 128.923 35.3146 129.309 35.3146C130.027 35.3146 130.386 35.0179 130.386 34.4176C130.386 34.121 130.289 33.8795 130.103 33.707C129.91 33.5345 129.641 33.4448 129.289 33.4448C128.909 33.4448 128.633 33.5345 128.454 33.707V33.7139Z" fill="#B9B9B9"/>
<path d="M132.89 37.2809C132.58 37.1843 132.29 37.0394 132.021 36.8393L132.4 36.2322C132.883 36.5772 133.394 36.7496 133.918 36.7496C134.215 36.7496 134.45 36.7013 134.608 36.5978C134.767 36.4944 134.85 36.3426 134.85 36.1425C134.85 35.9838 134.781 35.8458 134.636 35.7285C134.491 35.6112 134.243 35.5077 133.884 35.4112L133.573 35.3284C133.104 35.2111 132.766 35.0524 132.552 34.8523C132.338 34.6591 132.228 34.3969 132.228 34.0658C132.228 33.8174 132.297 33.6035 132.435 33.4103C132.573 33.2171 132.766 33.0722 133.021 32.9687C133.27 32.8653 133.553 32.8101 133.863 32.8101C134.174 32.8101 134.45 32.8446 134.726 32.9135C135.002 32.9825 135.284 33.0998 135.567 33.2654L135.215 33.8726C134.939 33.7277 134.705 33.6242 134.505 33.569C134.305 33.5138 134.091 33.4862 133.863 33.4862C133.622 33.4862 133.435 33.5345 133.297 33.6311C133.159 33.7277 133.09 33.8588 133.09 34.0175C133.09 34.1555 133.146 34.2658 133.256 34.3417C133.366 34.4176 133.56 34.4935 133.829 34.5694L134.139 34.6522C134.519 34.7488 134.822 34.8661 135.05 34.9903C135.278 35.1145 135.45 35.2663 135.554 35.4456C135.657 35.625 135.712 35.832 135.712 36.0804C135.712 36.3495 135.643 36.5841 135.505 36.7841C135.367 36.9842 135.167 37.1429 134.898 37.2602C134.629 37.3706 134.312 37.4327 133.932 37.4327C133.553 37.4327 133.187 37.3844 132.877 37.2878L132.89 37.2809Z" fill="#B9B9B9"/>
<path d="M139.694 37.1222C139.383 36.9221 139.149 36.6461 138.997 36.2943C138.845 35.9424 138.769 35.5491 138.769 35.1145C138.769 34.5832 138.873 34.1416 139.066 33.8036C139.266 33.4586 139.535 33.2102 139.873 33.0515C140.211 32.8928 140.597 32.8169 141.032 32.8169C141.501 32.8169 141.888 32.9204 142.198 33.1205C142.509 33.3206 142.743 33.5966 142.895 33.9416C143.047 34.2865 143.123 34.6798 143.123 35.1214C143.123 35.6595 143.026 36.1011 142.826 36.4461C142.626 36.791 142.357 37.0394 142.019 37.1981C141.681 37.3568 141.294 37.4327 140.86 37.4327C140.39 37.4327 140.004 37.3292 139.694 37.1291V37.1222ZM142.233 35.1076C142.233 34.6246 142.129 34.2313 141.915 33.9416C141.708 33.6518 141.391 33.5069 140.97 33.5069C140.501 33.5069 140.17 33.6518 139.97 33.9347C139.763 34.2175 139.666 34.6108 139.666 35.1076C139.666 35.6043 139.769 35.9907 139.983 36.2874C140.197 36.5771 140.515 36.7289 140.942 36.7289C141.798 36.7289 142.233 36.1908 142.233 35.1145V35.1076Z" fill="#B9B9B9"/>
<path d="M147.973 34.2037V37.3085H147.117V34.5211C147.117 34.2727 147.09 34.0864 147.041 33.9485C146.993 33.8105 146.91 33.7139 146.793 33.6518C146.676 33.5897 146.517 33.5621 146.317 33.5621C146.117 33.5621 145.903 33.5897 145.675 33.6449C145.448 33.7001 145.234 33.776 145.034 33.8726V37.3085H144.178V32.9342L145.034 32.8376V33.2585C145.593 32.9687 146.124 32.8169 146.634 32.8169C147.524 32.8169 147.973 33.2792 147.973 34.2037Z" fill="#B9B9B9"/>
<path d="M69.4085 10.1178V27.601H65.6828V16.7274C65.4482 17.3898 65.0481 18.266 64.4892 19.3423L61.4535 25.4414H58.5005L55.4095 19.3423C54.8507 18.2453 54.4505 17.376 54.2159 16.7274V27.601H50.4902V10.1178H54.4298L58.4246 17.7831C58.7282 18.3764 59.0179 18.9836 59.287 19.6045C59.5561 20.2255 59.77 20.7705 59.9356 21.2397C60.1909 20.4117 60.7014 19.2595 61.4603 17.7831L65.5172 10.1178H69.4016H69.4085Z" fill="#F4F3F0"/>
<path d="M75.0108 27.118C74.0656 26.5454 73.3619 25.7657 72.8927 24.786C72.4235 23.8063 72.189 22.7162 72.189 21.5088C72.189 19.9633 72.4925 18.7145 73.0928 17.7555C73.693 16.8033 74.4934 16.1134 75.48 15.6925C76.4666 15.2717 77.5774 15.0578 78.7986 15.0578C80.1647 15.0578 81.3238 15.3338 82.2622 15.8788C83.2074 16.4308 83.9111 17.1897 84.3803 18.1556C84.8494 19.1285 85.084 20.2531 85.084 21.5295C85.084 23.0197 84.7942 24.2478 84.2078 25.2138C83.6213 26.1728 82.8348 26.8765 81.8344 27.3181C80.834 27.7597 79.7094 27.9804 78.4468 27.9804C77.1014 27.9804 75.9492 27.6907 75.0039 27.118H75.0108ZM80.7167 24.2478C81.1168 23.5717 81.31 22.661 81.31 21.5088C81.31 20.2876 81.0962 19.363 80.6753 18.7283C80.2475 18.1004 79.5921 17.7831 78.7089 17.7831C77.7499 17.7831 77.0531 18.0935 76.6184 18.7145C76.1837 19.3354 75.9699 20.2669 75.9699 21.5088C75.9699 22.6748 76.1906 23.5924 76.6322 24.2616C77.0738 24.924 77.7499 25.2621 78.6537 25.2621C79.6335 25.2621 80.3165 24.924 80.7167 24.2478Z" fill="#F4F3F0"/>
<path d="M98.3585 15.4579V15.6442L93.8807 27.5941H90.1826L85.5669 15.6442V15.4579H89.4513L91.528 21.9089C91.7764 22.7369 91.9696 23.4475 92.0938 24.0409C92.1283 23.896 92.1904 23.6062 92.2801 23.1784C92.3697 22.7438 92.4663 22.3229 92.5767 21.9089L94.3016 15.4579H98.3516H98.3585Z" fill="#F4F3F0"/>
<path d="M100.629 13.3398C100.27 13.1328 99.9801 12.8569 99.7662 12.5188C99.5523 12.1807 99.4419 11.8012 99.4419 11.3873C99.4419 10.9733 99.5523 10.5938 99.7662 10.242C99.9801 9.89009 100.27 9.61412 100.629 9.40714C100.987 9.20015 101.374 9.09666 101.788 9.09666C102.202 9.09666 102.623 9.20015 102.988 9.40714C103.354 9.61412 103.651 9.89009 103.864 10.242C104.078 10.5938 104.189 10.9733 104.189 11.3873C104.189 11.8012 104.078 12.1807 103.864 12.5188C103.651 12.8638 103.354 13.1328 102.988 13.3398C102.616 13.5468 102.222 13.6503 101.788 13.6503C101.353 13.6503 100.987 13.5468 100.629 13.3398ZM100.035 27.601V15.5407L103.678 15.1889V27.601H100.035Z" fill="#F4F3F0"/>
<path d="M115.062 27.0904C114.007 27.6838 112.82 27.9804 111.516 27.9804C110.854 27.9804 110.24 27.8493 109.674 27.5872C109.108 27.325 108.646 26.911 108.287 26.3315C107.928 25.7588 107.749 25.0275 107.749 24.1444V18.3419H105.534V15.4579H107.749V12.7327L111.392 12.2221V15.4579H114.766L114.386 18.3419H111.392V23.5786C111.392 24.1168 111.488 24.4962 111.675 24.7101C111.861 24.924 112.13 25.0344 112.468 25.0344C112.717 25.0344 112.965 24.9999 113.199 24.9378C113.434 24.8757 113.724 24.7722 114.062 24.6273L115.062 27.0835V27.0904Z" fill="#F4F3F0"/>
<path d="M120.223 26.8213C118.919 26.0486 117.932 24.9723 117.27 23.5993C116.608 22.2263 116.27 20.6256 116.27 18.8111C116.27 16.7964 116.677 15.113 117.484 13.7538C118.291 12.3946 119.367 11.3873 120.706 10.7318C122.044 10.0764 123.535 9.7452 125.17 9.7452C127.04 9.7452 128.626 10.1316 129.93 10.9043C131.234 11.6771 132.214 12.7534 132.87 14.1264C133.525 15.4993 133.856 17.1 133.856 18.9146C133.856 20.9292 133.456 22.6127 132.656 23.9719C131.855 25.3311 130.786 26.3384 129.447 26.9938C128.109 27.6493 126.619 27.9804 124.984 27.9804C123.114 27.9804 121.527 27.5941 120.223 26.8213ZM127.695 24.1374C128.44 23.6614 128.999 22.9783 129.365 22.0883C129.73 21.1983 129.917 20.1496 129.917 18.9422C129.917 17.0379 129.51 15.5476 128.702 14.4782C127.895 13.4088 126.715 12.8706 125.17 12.8706C123.624 12.8706 122.32 13.395 121.472 14.4506C120.623 15.5062 120.202 16.9482 120.202 18.7835C120.202 20.6187 120.609 22.178 121.417 23.2474C122.224 24.3168 123.41 24.855 124.977 24.855C126.039 24.855 126.943 24.6135 127.688 24.1374H127.695Z" fill="#F4F3F0"/>
<path d="M147.055 15.9892C147.69 16.6102 148 17.514 148 18.7007V27.601H144.357V19.777C144.357 19.2733 144.309 18.8801 144.205 18.6041C144.102 18.3281 143.936 18.1211 143.702 17.9969C143.467 17.8728 143.129 17.8107 142.688 17.8107C141.956 17.8107 141.101 18.1004 140.121 18.6731V27.601H136.478V15.5407L140.121 15.1889V16.3756C140.79 15.9616 141.459 15.6373 142.136 15.4028C142.812 15.1682 143.515 15.0509 144.233 15.0509C145.475 15.0509 146.42 15.3614 147.048 15.9823L147.055 15.9892Z" fill="#F4F3F0"/>
<path d="M88.6233 14.3954C88.7267 14.3954 88.8095 14.3333 88.844 14.2368C89.2925 13.0224 90.4585 12.16 91.8246 12.16C93.1907 12.16 94.3567 13.0224 94.8052 14.2368C94.8396 14.3333 94.9293 14.3954 95.0259 14.3954H97.8685C98.0203 14.3954 98.1376 14.2574 98.11 14.1126C97.5373 11.1596 94.9431 8.93108 91.8246 8.93108C88.706 8.93108 86.1119 11.1596 85.5392 14.1126C85.5116 14.2574 85.6289 14.3954 85.7807 14.3954H88.6233Z" fill="#FAC51E"/>
<path d="M38.4989 10.5179C37.1397 9.69692 21.816 0.35506 21.202 -0.00371125C20.5879 -0.362482 20.381 -0.417677 19.967 -0.465973C19.553 -0.417677 19.3529 -0.362482 18.732 -0.00371125C18.1179 0.35506 2.79428 9.69692 1.43509 10.5179C0.0758951 11.339 0 11.8771 0 13.2639V32.1546C0 33.1826 0.14489 33.8243 0.745141 34.2175C1.53168 34.7281 10.2595 39.7509 11.3358 40.296C12.4121 40.8341 12.9848 39.9855 12.9848 39.1989V32.7411C12.9848 32.7411 16.3034 34.6522 17.4487 35.2456C17.9041 35.4801 18.2904 35.6595 18.6009 35.7975C19.4702 36.177 20.45 36.177 21.3193 35.7975C21.6367 35.6595 22.0161 35.4801 22.4715 35.2456C23.6168 34.6591 26.9354 32.7411 26.9354 32.7411V39.1989C26.9354 39.9924 27.5081 40.8341 28.5844 40.296C29.6607 39.7578 38.8163 34.4728 39.3061 34.1623C39.796 33.8519 39.9202 33.5483 39.9202 32.5203V13.2639C39.9202 11.8771 39.8443 11.339 38.4851 10.5179H38.4989ZM11.0598 37.8329L1.61447 32.5479V26.4626L11.0598 31.8579V37.8329ZM18.7872 33.6725L1.61447 24.1237V13.0362L18.7872 23.0749V33.6725ZM19.967 21.4467C19.8773 21.3915 19.7876 21.3432 19.7876 21.3432L2.87707 11.615L19.7186 1.39688C19.7186 1.39688 19.8428 1.32098 19.967 1.25199C20.0912 1.32788 20.2154 1.39688 20.2154 1.39688L37.0569 11.615L20.1464 21.3432C20.1464 21.3432 20.0567 21.3984 19.967 21.4467ZM38.3195 32.5479L28.8742 37.8329V31.8579L38.3195 26.4626V32.5479ZM38.3195 24.1306L21.1468 33.6794V23.0818L38.3195 13.0431V24.1306Z" fill="#F4F3F0"/>
<path d="M29.8263 5.21227L27.8875 4.05316L9.65918 15.5062L11.6531 16.6585L29.8263 5.21227Z" fill="#FAC51E"/>
<path d="M9.65918 15.5062V19.8943C9.65918 20.0254 9.73507 20.1427 9.84547 20.2048L11.0943 20.8878C11.3426 21.0327 11.66 20.8602 11.6669 20.5635V16.6446L9.65918 15.4993V15.5062Z" fill="#E0AC26"/>
</svg>
