<svg width="148" height="40" viewBox="0 0 148 40" fill="none" xmlns="http://www.w3.org/2000/svg">
<path d="M59.2386 30.8367V30.8988L57.431 37.3084H56.334L55.2438 33.3343C55.099 32.8031 54.9748 32.2442 54.8713 31.6647C54.823 31.913 54.7747 32.1821 54.7126 32.4719C54.6505 32.7617 54.5884 33.0515 54.5125 33.3274L53.4638 37.3015H52.3668L50.5177 30.8919V30.8298H51.4492L52.5669 34.9005C52.6773 35.3076 52.8014 35.8181 52.9325 36.4253C53.036 35.7836 53.1326 35.28 53.243 34.9005L54.3745 30.8298H55.4508L56.5961 34.9005C56.6789 35.1834 56.7893 35.7008 56.9342 36.4391C56.9756 36.1976 57.0239 35.9423 57.0929 35.6594C57.1619 35.3766 57.224 35.1282 57.2861 34.9005L58.3348 30.8298H59.2317L59.2386 30.8367Z" fill="#2475B8"/>
<path d="M63.4266 35.2662H60.3839C60.3839 35.763 60.515 36.1286 60.7496 36.3563C60.9842 36.584 61.2877 36.6944 61.6603 36.6944C61.9294 36.6944 62.1571 36.6599 62.3572 36.5978C62.5503 36.5288 62.7711 36.4253 63.0126 36.2873L63.3438 36.8945C62.7987 37.2463 62.2261 37.4257 61.6258 37.4257C60.9842 37.4257 60.4736 37.2463 60.0941 36.8945C59.7147 36.5357 59.5215 35.9768 59.5215 35.2041C59.5215 34.7625 59.6043 34.3624 59.763 34.0036C59.9217 33.6448 60.1631 33.3551 60.4736 33.1412C60.791 32.9273 61.1774 32.8169 61.6396 32.8169C62.026 32.8169 62.3572 32.8928 62.6262 33.0515C62.9022 33.2102 63.1023 33.424 63.2472 33.6931C63.3852 33.9691 63.4542 34.2796 63.4542 34.6315L63.4335 35.2731L63.4266 35.2662ZM60.8186 33.7897C60.6185 33.9967 60.4943 34.2796 60.4322 34.6383H62.6055V34.597C62.6055 34.2244 62.5227 33.9415 62.3503 33.7552C62.1778 33.5689 61.9363 33.4723 61.6258 33.4723C61.2808 33.4723 61.0118 33.5758 60.8117 33.7828L60.8186 33.7897Z" fill="#2475B8"/>
<path d="M72.8995 33.1343C73.1272 33.3482 73.2376 33.6931 73.2376 34.1761V37.3084H72.3821V34.5211C72.3821 34.2727 72.3614 34.0864 72.3131 33.9484C72.2648 33.8104 72.1958 33.7138 72.0923 33.6517C71.9957 33.5896 71.8508 33.562 71.6714 33.562C71.4782 33.562 71.2781 33.5896 71.0643 33.6448C70.8504 33.7 70.6503 33.7759 70.464 33.8725C70.4778 34.0036 70.4847 34.1071 70.4847 34.1692V37.3015H69.6292V34.5142C69.6292 34.2658 69.6085 34.0795 69.5671 33.9415C69.5257 33.8035 69.4498 33.7069 69.3532 33.6448C69.2566 33.5827 69.1117 33.5551 68.9323 33.5551C68.753 33.5551 68.546 33.5827 68.3459 33.6379C68.1389 33.6931 67.9457 33.769 67.7594 33.8518V37.2946H66.9039V32.9204L67.7594 32.8238V33.2447C68.27 32.9549 68.7737 32.8031 69.2566 32.8031C69.7396 32.8031 70.0983 32.9687 70.2984 33.293C70.5399 33.155 70.809 33.0377 71.1126 32.9411C71.4161 32.8445 71.7128 32.8031 72.0095 32.8031C72.389 32.8031 72.6925 32.9066 72.9202 33.1205L72.8995 33.1343Z" fill="#2475B8"/>
<path d="M75.1625 37.1222C74.8521 36.9221 74.6175 36.6461 74.4657 36.2942C74.3139 35.9423 74.238 35.5491 74.238 35.1144C74.238 34.5832 74.3415 34.1416 74.5347 33.8035C74.7348 33.4585 75.0038 33.2102 75.3419 33.0515C75.68 32.8928 76.0664 32.8169 76.501 32.8169C76.9702 32.8169 77.3566 32.9204 77.667 33.1205C77.9775 33.3206 78.2121 33.5965 78.3639 33.9415C78.5157 34.2865 78.5916 34.6797 78.5916 35.1213C78.5916 35.6595 78.495 36.101 78.2949 36.446C78.0948 36.791 77.8257 37.0394 77.4877 37.198C77.1496 37.3567 76.7632 37.4326 76.3285 37.4326C75.8594 37.4326 75.473 37.3291 75.1625 37.129V37.1222ZM77.7015 35.1075C77.7015 34.6246 77.598 34.2313 77.3842 33.9415C77.1772 33.6517 76.8598 33.5068 76.4389 33.5068C75.9698 33.5068 75.6386 33.6517 75.4385 33.9346C75.2315 34.2175 75.1349 34.6108 75.1349 35.1075C75.1349 35.6043 75.2384 35.9906 75.4523 36.2873C75.6662 36.5771 75.9836 36.7289 76.4113 36.7289C77.2669 36.7289 77.7015 36.1907 77.7015 35.1144V35.1075Z" fill="#2475B8"/>
<path d="M83.2142 32.9342V32.9963L81.4686 37.3085H80.6821L78.8951 32.9963V32.9342H79.8335L80.8891 35.7492C80.9167 35.8182 80.9719 35.97 81.0478 36.2114L81.1099 36.4046C81.1789 36.1769 81.2478 35.9631 81.3168 35.7561L82.3173 32.9411H83.2142V32.9342Z" fill="#2475B8"/>
<path d="M87.416 35.2662H84.3733C84.3733 35.763 84.5044 36.1286 84.739 36.3563C84.9736 36.584 85.2771 36.6944 85.6497 36.6944C85.9188 36.6944 86.1465 36.6599 86.3466 36.5978C86.5398 36.5288 86.7605 36.4253 87.002 36.2873L87.3332 36.8945C86.7881 37.2463 86.2155 37.4257 85.6152 37.4257C84.9736 37.4257 84.463 37.2463 84.0836 36.8945C83.7041 36.5357 83.5109 35.9768 83.5109 35.2041C83.5109 34.7625 83.5937 34.3624 83.7524 34.0036C83.9111 33.6448 84.1525 33.3551 84.463 33.1412C84.7804 32.9273 85.1668 32.8169 85.629 32.8169C86.0154 32.8169 86.3466 32.8928 86.6156 33.0515C86.8916 33.2102 87.0917 33.424 87.2366 33.6931C87.3746 33.9691 87.4436 34.2796 87.4436 34.6315L87.4229 35.2731L87.416 35.2662ZM84.808 33.7897C84.6079 33.9967 84.4837 34.2796 84.4216 34.6383H86.5949V34.597C86.5949 34.2244 86.5121 33.9415 86.3397 33.7552C86.1672 33.5689 85.9257 33.4723 85.6152 33.4723C85.2703 33.4723 85.0012 33.5758 84.8011 33.7828L84.808 33.7897Z" fill="#2475B8"/>
<path d="M94.5638 32.9342V32.9963L92.8941 37.6189C92.7492 38.026 92.5905 38.3503 92.4249 38.5918C92.2594 38.8332 92.0731 39.0126 91.8592 39.123C91.6522 39.2334 91.4038 39.2886 91.1141 39.2886C90.8243 39.2886 90.5345 39.2403 90.2447 39.1368L90.4724 38.4745C90.6656 38.5366 90.8519 38.5642 91.0451 38.5642C91.1968 38.5642 91.3279 38.5435 91.4314 38.4952C91.5349 38.4469 91.6453 38.3572 91.7488 38.2261C91.8523 38.095 91.9558 37.8949 92.0524 37.6258L92.1697 37.3085H91.942L90.2654 32.9963V32.9342H91.1761L92.2042 35.7285L92.3146 36.0252L92.4732 36.4943L92.7216 35.7285L93.6806 32.9342H94.5569H94.5638Z" fill="#2475B8"/>
<path d="M95.8333 37.1222C95.5228 36.9221 95.2882 36.6461 95.1364 36.2942C94.9846 35.9423 94.9088 35.5491 94.9088 35.1144C94.9088 34.5832 95.0122 34.1416 95.2054 33.8035C95.4055 33.4585 95.6746 33.2102 96.0127 33.0515C96.3507 32.8928 96.7371 32.8169 97.1718 32.8169C97.6409 32.8169 98.0273 32.9204 98.3378 33.1205C98.6482 33.3206 98.8828 33.5965 99.0346 33.9415C99.1864 34.2865 99.2623 34.6797 99.2623 35.1213C99.2623 35.6595 99.1657 36.101 98.9656 36.446C98.7655 36.791 98.4965 37.0394 98.1584 37.198C97.8203 37.3567 97.4339 37.4326 96.9993 37.4326C96.5301 37.4326 96.1438 37.3291 95.8333 37.129V37.1222ZM98.3723 35.1075C98.3723 34.6246 98.2688 34.2313 98.0549 33.9415C97.8479 33.6517 97.5305 33.5068 97.1097 33.5068C96.6405 33.5068 96.3093 33.6517 96.1092 33.9346C95.9023 34.2175 95.8057 34.6108 95.8057 35.1075C95.8057 35.6043 95.9092 35.9906 96.1231 36.2873C96.3369 36.5771 96.6543 36.7289 97.0821 36.7289C97.9376 36.7289 98.3723 36.1907 98.3723 35.1144V35.1075Z" fill="#2475B8"/>
<path d="M104.023 32.8307V37.3015H103.257L103.209 36.9704C102.698 37.267 102.174 37.4188 101.65 37.4188C101.242 37.4188 100.911 37.3015 100.656 37.0738C100.401 36.8462 100.27 36.4943 100.27 36.032V32.9273L101.125 32.8307V35.7837C101.125 36.0044 101.153 36.1769 101.208 36.308C101.263 36.4391 101.346 36.5288 101.47 36.5909C101.587 36.6461 101.753 36.6737 101.967 36.6737C102.284 36.6737 102.684 36.5495 103.167 36.3011V32.9273L104.023 32.8307Z" fill="#2475B8"/>
<path d="M107.866 32.8307C107.956 32.8445 108.059 32.8652 108.163 32.8928L108.004 33.7828C107.776 33.7 107.569 33.6655 107.383 33.6655C107.169 33.6655 106.976 33.7138 106.796 33.8035C106.617 33.8932 106.445 34.0726 106.279 34.3348V37.3084H105.423V32.9273L106.279 32.8376V33.4654C106.445 33.2516 106.638 33.0929 106.859 32.9825C107.079 32.8721 107.314 32.8169 107.555 32.8169C107.666 32.8169 107.769 32.8169 107.866 32.8376V32.8307Z" fill="#2475B8"/>
<path d="M114.172 37.1429C113.827 37.3292 113.461 37.4258 113.075 37.4258C112.661 37.4258 112.337 37.3085 112.095 37.0739C111.854 36.8393 111.736 36.4806 111.736 36.0114V33.6173H110.86V32.9411H111.736V31.9545L112.592 31.8165V32.948H114.068L113.979 33.6242H112.592V35.8803C112.592 36.4392 112.799 36.722 113.213 36.722C113.33 36.722 113.448 36.7082 113.565 36.6806C113.675 36.653 113.799 36.6116 113.937 36.5495L114.179 37.1567L114.172 37.1429Z" fill="#2475B8"/>
<path d="M118.443 33.1343C118.684 33.3482 118.802 33.6932 118.802 34.1761V37.3085H117.946V34.5211C117.946 34.2727 117.918 34.0864 117.87 33.9484C117.822 33.8104 117.739 33.7139 117.622 33.6518C117.504 33.5897 117.346 33.5621 117.146 33.5621C116.946 33.5621 116.732 33.5897 116.511 33.6449C116.29 33.7001 116.083 33.7691 115.89 33.8656V37.3085H115.034V30.4366L115.89 30.3331V33.2378C116.435 32.9549 116.959 32.81 117.47 32.81C117.884 32.81 118.208 32.9135 118.45 33.1274L118.443 33.1343Z" fill="#2475B8"/>
<path d="M120.264 31.9614C120.175 31.9062 120.099 31.8303 120.037 31.7337C119.974 31.6371 119.954 31.5405 119.954 31.437C119.954 31.3266 119.981 31.2231 120.037 31.1265C120.092 31.0299 120.168 30.9609 120.264 30.8988C120.354 30.8436 120.457 30.816 120.561 30.816C120.671 30.816 120.775 30.8436 120.871 30.8988C120.968 30.954 121.037 31.0299 121.099 31.1265C121.154 31.2231 121.182 31.3197 121.182 31.437C121.182 31.5405 121.154 31.644 121.099 31.7337C121.044 31.8303 120.968 31.8993 120.871 31.9614C120.782 32.0165 120.678 32.0441 120.561 32.0441C120.457 32.0441 120.354 32.0165 120.264 31.9614ZM120.147 37.3084V32.9342L121.002 32.8376V37.3084H120.147Z" fill="#2475B8"/>
<path d="M126.198 34.2037V37.3084H125.342V34.5211C125.342 34.2727 125.315 34.0864 125.266 33.9484C125.218 33.8104 125.135 33.7138 125.018 33.6517C124.901 33.5896 124.742 33.562 124.542 33.562C124.342 33.562 124.128 33.5896 123.9 33.6448C123.673 33.7 123.459 33.7759 123.259 33.8725V37.3084H122.403V32.9342L123.259 32.8376V33.2585C123.817 32.9687 124.349 32.8169 124.859 32.8169C125.749 32.8169 126.198 33.2792 126.198 34.2037Z" fill="#2475B8"/>
<path d="M130.965 36.7772C131.214 36.8669 131.4 36.9842 131.531 37.1498C131.655 37.3085 131.717 37.5154 131.717 37.7707C131.717 38.0743 131.621 38.3434 131.421 38.578C131.221 38.8056 130.945 38.985 130.579 39.1092C130.213 39.2334 129.779 39.2955 129.268 39.2955C128.619 39.2955 128.109 39.192 127.723 38.985C127.336 38.778 127.143 38.4676 127.143 38.0536C127.143 37.7983 127.205 37.5913 127.329 37.4258C127.453 37.2602 127.633 37.1015 127.86 36.9566C127.66 36.8186 127.564 36.6392 127.564 36.4184C127.564 36.2873 127.605 36.1632 127.681 36.0459C127.757 35.9355 127.881 35.8182 128.047 35.694C127.805 35.5629 127.626 35.3835 127.509 35.1627C127.391 34.942 127.329 34.6936 127.329 34.4038C127.329 34.0381 127.419 33.7345 127.605 33.4931C127.785 33.2516 128.026 33.0791 128.33 32.9756C128.626 32.8721 128.964 32.8169 129.33 32.8169C129.516 32.8169 129.71 32.8307 129.91 32.8652L131.4 32.2443L131.697 32.9411L130.675 33.2309C130.869 33.3758 131.014 33.5552 131.103 33.7552C131.193 33.9553 131.241 34.1761 131.241 34.4107C131.241 34.9488 131.055 35.3421 130.675 35.5905C130.296 35.8389 129.82 35.9631 129.24 35.9631C128.978 35.9631 128.757 35.9424 128.571 35.8941C128.481 35.9907 128.44 36.0873 128.44 36.2045C128.44 36.2804 128.468 36.3356 128.523 36.377C128.578 36.4184 128.661 36.4529 128.785 36.4736C128.902 36.4943 129.075 36.515 129.296 36.5357L130.006 36.5978C130.399 36.6323 130.717 36.6944 130.972 36.7772H130.965ZM130.379 38.4469C130.669 38.3365 130.813 38.1502 130.813 37.888C130.813 37.7707 130.772 37.6672 130.696 37.5913C130.613 37.5154 130.496 37.4533 130.33 37.412C130.165 37.3706 129.944 37.3361 129.668 37.3085L128.958 37.2464C128.744 37.2257 128.55 37.1981 128.371 37.1567C128.247 37.2671 128.143 37.3913 128.074 37.5223C128.005 37.6534 127.971 37.7845 127.971 37.9156C127.971 38.1502 128.074 38.3227 128.288 38.44C128.502 38.5573 128.84 38.6125 129.296 38.6125C129.73 38.6125 130.089 38.5573 130.379 38.44V38.4469ZM128.454 33.7138C128.274 33.8863 128.192 34.114 128.192 34.39C128.192 34.666 128.281 34.9006 128.461 35.0661C128.64 35.2317 128.923 35.3145 129.309 35.3145C130.027 35.3145 130.386 35.0178 130.386 34.4176C130.386 34.1209 130.289 33.8794 130.103 33.707C129.91 33.5345 129.641 33.4448 129.289 33.4448C128.909 33.4448 128.633 33.5345 128.454 33.707V33.7138Z" fill="#2475B8"/>
<path d="M132.89 37.2809C132.58 37.1843 132.29 37.0394 132.021 36.8393L132.4 36.2322C132.883 36.5772 133.394 36.7496 133.918 36.7496C134.215 36.7496 134.449 36.7013 134.608 36.5978C134.767 36.4944 134.85 36.3426 134.85 36.1425C134.85 35.9838 134.781 35.8458 134.636 35.7285C134.491 35.6112 134.242 35.5077 133.884 35.4112L133.573 35.3284C133.104 35.2111 132.766 35.0524 132.552 34.8523C132.338 34.6591 132.228 34.3969 132.228 34.0658C132.228 33.8174 132.297 33.6035 132.435 33.4103C132.573 33.2171 132.766 33.0722 133.021 32.9687C133.27 32.8653 133.553 32.8101 133.863 32.8101C134.173 32.8101 134.449 32.8446 134.725 32.9135C135.001 32.9825 135.284 33.0998 135.567 33.2654L135.215 33.8726C134.939 33.7277 134.705 33.6242 134.505 33.569C134.305 33.5138 134.091 33.4862 133.863 33.4862C133.622 33.4862 133.435 33.5345 133.297 33.6311C133.159 33.7277 133.09 33.8588 133.09 34.0175C133.09 34.1555 133.145 34.2658 133.256 34.3417C133.366 34.4176 133.559 34.4935 133.829 34.5694L134.139 34.6522C134.518 34.7488 134.822 34.8661 135.05 34.9903C135.277 35.1145 135.45 35.2663 135.553 35.4456C135.657 35.625 135.712 35.832 135.712 36.0804C135.712 36.3495 135.643 36.5841 135.505 36.7841C135.367 36.9842 135.167 37.1429 134.898 37.2602C134.629 37.3706 134.311 37.4327 133.932 37.4327C133.553 37.4327 133.187 37.3844 132.876 37.2878L132.89 37.2809Z" fill="#2475B8"/>
<path d="M139.693 37.1222C139.383 36.9221 139.148 36.6461 138.996 36.2942C138.844 35.9423 138.769 35.5491 138.769 35.1144C138.769 34.5832 138.872 34.1416 139.065 33.8035C139.265 33.4585 139.534 33.2102 139.872 33.0515C140.211 32.8928 140.597 32.8169 141.032 32.8169C141.501 32.8169 141.887 32.9204 142.198 33.1205C142.508 33.3206 142.743 33.5965 142.894 33.9415C143.046 34.2865 143.122 34.6797 143.122 35.1213C143.122 35.6595 143.026 36.101 142.825 36.446C142.625 36.791 142.356 37.0394 142.018 37.198C141.68 37.3567 141.294 37.4326 140.859 37.4326C140.39 37.4326 140.004 37.3291 139.693 37.129V37.1222ZM142.232 35.1075C142.232 34.6246 142.129 34.2313 141.915 33.9415C141.708 33.6517 141.39 33.5068 140.969 33.5068C140.5 33.5068 140.169 33.6517 139.969 33.9346C139.762 34.2175 139.665 34.6108 139.665 35.1075C139.665 35.6043 139.769 35.9906 139.983 36.2873C140.197 36.5771 140.514 36.7289 140.942 36.7289C141.797 36.7289 142.232 36.1907 142.232 35.1144V35.1075Z" fill="#2475B8"/>
<path d="M147.972 34.2037V37.3084H147.117V34.5211C147.117 34.2727 147.089 34.0864 147.041 33.9484C146.993 33.8104 146.91 33.7138 146.793 33.6517C146.675 33.5896 146.517 33.562 146.317 33.562C146.116 33.562 145.903 33.5896 145.675 33.6448C145.447 33.7 145.233 33.7759 145.033 33.8725V37.3084H144.178V32.9342L145.033 32.8376V33.2585C145.592 32.9687 146.123 32.8169 146.634 32.8169C147.524 32.8169 147.972 33.2792 147.972 34.2037Z" fill="#2475B8"/>
<path d="M69.4084 10.1178V27.601H65.6827V16.7275C65.4481 17.3898 65.048 18.266 64.4891 19.3424L61.4534 25.4415H58.5004L55.4094 19.3424C54.8506 18.2453 54.4504 17.376 54.2158 16.7275V27.601H50.4901V10.1178H54.4297L58.4245 17.7831C58.7281 18.3764 59.0179 18.9836 59.2869 19.6045C59.556 20.2255 59.7699 20.7705 59.9355 21.2397C60.1908 20.4118 60.7013 19.2596 61.4603 17.7831L65.5171 10.1178H69.4015H69.4084Z" fill="#18354B"/>
<path d="M75.0108 27.118C74.0656 26.5453 73.3618 25.7657 72.8927 24.786C72.4235 23.8062 72.1889 22.7161 72.1889 21.5087C72.1889 19.9632 72.4925 18.7144 73.0927 17.7554C73.693 16.8033 74.4933 16.1134 75.4799 15.6925C76.4666 15.2716 77.5774 15.0577 78.7986 15.0577C80.1647 15.0577 81.3238 15.3337 82.2621 15.8788C83.2073 16.4307 83.9111 17.1897 84.3802 18.1556C84.8494 19.1284 85.084 20.253 85.084 21.5294C85.084 23.0197 84.7942 24.2478 84.2077 25.2137C83.6213 26.1727 82.8347 26.8765 81.8343 27.318C80.8339 27.7596 79.7093 27.9804 78.4467 27.9804C77.1013 27.9804 75.9491 27.6906 75.0039 27.118H75.0108ZM80.7166 24.2478C81.1168 23.5716 81.31 22.6609 81.31 21.5087C81.31 20.2875 81.0961 19.363 80.6752 18.7282C80.2475 18.1004 79.592 17.783 78.7089 17.783C77.7499 17.783 77.053 18.0935 76.6183 18.7144C76.1837 19.3354 75.9698 20.2668 75.9698 21.5087C75.9698 22.6747 76.1906 23.5924 76.6321 24.2616C77.0737 24.9239 77.7499 25.262 78.6537 25.262C79.6334 25.262 80.3165 24.9239 80.7166 24.2478Z" fill="#18354B"/>
<path d="M98.3585 15.458V15.6443L93.8807 27.5941H90.1826L85.5669 15.6443V15.458H89.4513L91.528 21.909C91.7764 22.7369 91.9696 23.4476 92.0938 24.0409C92.1283 23.896 92.1904 23.6063 92.2801 23.1785C92.3697 22.7438 92.4663 22.323 92.5767 21.909L94.3016 15.458H98.3516H98.3585Z" fill="#18354B"/>
<path d="M100.628 13.3398C100.27 13.1329 99.9799 12.8569 99.766 12.5188C99.5521 12.1807 99.4417 11.8013 99.4417 11.3873C99.4417 10.9733 99.5521 10.5939 99.766 10.242C99.9799 9.89011 100.27 9.61414 100.628 9.40715C100.987 9.20017 101.374 9.09668 101.788 9.09668C102.201 9.09668 102.622 9.20017 102.988 9.40715C103.354 9.61414 103.65 9.89011 103.864 10.242C104.078 10.5939 104.189 10.9733 104.189 11.3873C104.189 11.8013 104.078 12.1807 103.864 12.5188C103.65 12.8638 103.354 13.1329 102.988 13.3398C102.615 13.5468 102.222 13.6503 101.788 13.6503C101.353 13.6503 100.987 13.5468 100.628 13.3398ZM100.035 27.601V15.5408L103.678 15.1889V27.601H100.035Z" fill="#18354B"/>
<path d="M115.062 27.0905C114.006 27.6838 112.82 27.9805 111.516 27.9805C110.853 27.9805 110.239 27.8494 109.674 27.5872C109.108 27.325 108.646 26.9111 108.287 26.3315C107.928 25.7589 107.749 25.0275 107.749 24.1444V18.342H105.534V15.458H107.749V12.7327L111.392 12.2222V15.458H114.765L114.386 18.342H111.392V23.5786C111.392 24.1168 111.488 24.4963 111.674 24.7102C111.861 24.924 112.13 25.0344 112.468 25.0344C112.716 25.0344 112.965 24.9999 113.199 24.9378C113.434 24.8757 113.724 24.7723 114.062 24.6274L115.062 27.0836V27.0905Z" fill="#18354B"/>
<path d="M120.223 26.8214C118.919 26.0486 117.932 24.9723 117.27 23.5993C116.608 22.2263 116.269 20.6257 116.269 18.8111C116.269 16.7965 116.677 15.113 117.484 13.7538C118.291 12.3946 119.367 11.3873 120.706 10.7319C122.044 10.0764 123.535 9.74524 125.17 9.74524C127.04 9.74524 128.626 10.1316 129.93 10.9044C131.234 11.6771 132.214 12.7534 132.87 14.1264C133.525 15.4994 133.856 17.1001 133.856 18.9146C133.856 20.9292 133.456 22.6127 132.656 23.9719C131.855 25.3311 130.786 26.3384 129.447 26.9939C128.109 27.6493 126.619 27.9805 124.983 27.9805C123.114 27.9805 121.527 27.5941 120.223 26.8214ZM127.695 24.1375C128.44 23.6614 128.999 22.9784 129.365 22.0883C129.73 21.1983 129.917 20.1496 129.917 18.9422C129.917 17.038 129.51 15.5477 128.702 14.4783C127.895 13.4088 126.715 12.8707 125.17 12.8707C123.624 12.8707 122.32 13.3951 121.472 14.4507C120.623 15.5063 120.202 16.9483 120.202 18.7835C120.202 20.6188 120.609 22.178 121.416 23.2475C122.224 24.3169 123.41 24.855 124.977 24.855C126.039 24.855 126.943 24.6135 127.688 24.1375H127.695Z" fill="#18354B"/>
<path d="M147.055 15.9892C147.689 16.6102 148 17.514 148 18.7007V27.601H144.357V19.777C144.357 19.2734 144.309 18.8801 144.205 18.6041C144.102 18.3281 143.936 18.1212 143.702 17.997C143.467 17.8728 143.129 17.8107 142.687 17.8107C141.956 17.8107 141.101 18.1005 140.121 18.6731V27.601H136.478V15.5408L140.121 15.1889V16.3756C140.79 15.9616 141.459 15.6374 142.135 15.4028C142.812 15.1682 143.515 15.0509 144.233 15.0509C145.475 15.0509 146.42 15.3614 147.048 15.9823L147.055 15.9892Z" fill="#18354B"/>
<path d="M88.6234 14.3954C88.7269 14.3954 88.8097 14.3333 88.8442 14.2367C89.2926 13.0224 90.4587 12.16 91.8247 12.16C93.1908 12.16 94.3568 13.0224 94.8053 14.2367C94.8398 14.3333 94.9295 14.3954 95.0261 14.3954H97.8687C98.0204 14.3954 98.1377 14.2574 98.1101 14.1125C97.5375 11.1595 94.9433 8.93103 91.8247 8.93103C88.7062 8.93103 86.112 11.1595 85.5394 14.1125C85.5118 14.2574 85.629 14.3954 85.7808 14.3954H88.6234Z" fill="#FAC51E"/>
<path d="M38.4989 10.518C37.1397 9.69695 21.816 0.35509 21.202 -0.00368074C20.5879 -0.362452 20.381 -0.417646 19.967 -0.465942C19.553 -0.417646 19.3529 -0.362452 18.732 -0.00368074C18.1179 0.35509 2.79428 9.69695 1.43509 10.518C0.0758951 11.339 0 11.8772 0 13.264V32.1546C0 33.1827 0.14489 33.8243 0.745141 34.2176C1.53168 34.7281 10.2595 39.7509 11.3358 40.296C12.4121 40.8341 12.9848 39.9855 12.9848 39.199V32.7411C12.9848 32.7411 16.3034 34.6522 17.4487 35.2456C17.9041 35.4802 18.2904 35.6596 18.6009 35.7976C19.4702 36.177 20.45 36.177 21.3193 35.7976C21.6367 35.6596 22.0161 35.4802 22.4715 35.2456C23.6168 34.6591 26.9354 32.7411 26.9354 32.7411V39.199C26.9354 39.9924 27.5081 40.8341 28.5844 40.296C29.6607 39.7578 38.8163 34.4729 39.3061 34.1624C39.796 33.8519 39.9202 33.5483 39.9202 32.5203V13.264C39.9202 11.8772 39.8443 11.339 38.4851 10.518H38.4989ZM11.0598 37.8329L1.61447 32.5479V26.4626L11.0598 31.858V37.8329ZM18.7872 33.6725L1.61447 24.1237V13.0363L18.7872 23.075V33.6725ZM19.967 21.4467C19.8773 21.3915 19.7876 21.3432 19.7876 21.3432L2.87707 11.615L19.7186 1.39691C19.7186 1.39691 19.8428 1.32101 19.967 1.25202C20.0912 1.32791 20.2154 1.39691 20.2154 1.39691L37.0569 11.615L20.1464 21.3432C20.1464 21.3432 20.0567 21.3984 19.967 21.4467ZM38.3195 32.5479L28.8742 37.8329V31.858L38.3195 26.4626V32.5479ZM38.3195 24.1306L21.1468 33.6794V23.0819L38.3195 13.0432V24.1306Z" fill="#18354B"/>
<path d="M29.8263 5.21233L27.8875 4.05322L9.65921 15.5063L11.6532 16.6585L29.8263 5.21233Z" fill="#FAC51E"/>
<path d="M9.65921 15.5063V19.8943C9.65921 20.0254 9.7351 20.1427 9.8455 20.2048L11.0943 20.8879C11.3427 21.0327 11.66 20.8603 11.6669 20.5636V16.6447L9.65921 15.4994V15.5063Z" fill="#E0AC26"/>
</svg>
